<svg width="390" height="412" viewBox="0 0 390 412" fill="none" xmlns="http://www.w3.org/2000/svg">
<path d="M254.566 91.7763C254.566 90.8216 254.056 89.8881 254.226 89.1244C254.715 86.9605 259.92 84.4359 260.94 79.9171C262.257 74.0829 259.92 72.0039 258.73 67.3153C257.965 64.3028 257.647 61.0993 256.775 58.0868C255.819 54.8621 251.336 44.9122 251.315 42.3877C251.315 41.5391 252.229 40.945 252.335 40.1176C253.185 33.2652 253.291 35.5988 255.989 30.2314C257.88 26.4976 258.433 24.4185 257.498 20.2816C254.205 5.74928 243.114 4.54002 230.578 2.46094C221.187 0.912247 216.406 0 194.989 0C173.573 0 168.792 0.912247 159.401 2.46094C146.865 4.5188 135.774 5.74928 132.481 20.2816C131.546 24.4185 132.099 26.4976 133.99 30.2314C136.709 35.5988 136.815 33.2652 137.644 40.1176C137.75 40.945 138.685 41.5391 138.664 42.3877C138.643 44.9335 134.138 54.8833 133.203 58.0868C132.311 61.0781 131.992 64.3028 131.249 67.3153C130.059 72.0039 127.722 74.0829 129.039 79.9171C130.059 84.4359 135.264 86.9605 135.753 89.1244C135.923 89.8881 135.413 90.8216 135.413 91.7763C135.413 151.624 70.9074 238.478 -102 238.478V412H492V238.478C319.071 238.478 254.587 151.624 254.587 91.7763H254.566Z" fill="url(#paint0_linear_495_1246)"/>
<defs>
<linearGradient id="paint0_linear_495_1246" x1="195" y1="-35.1067" x2="195" y2="336" gradientUnits="userSpaceOnUse">
<stop stop-color="#B50006"/>
<stop offset="0.5" stop-color="#F50008"/>
<stop offset="1" stop-color="#B50006"/>
</linearGradient>
</defs>
</svg>
