<svg  viewBox="0 0 40 40" fill="none" xmlns="http://www.w3.org/2000/svg">
<circle cx="20" cy="20" r="20" fill="white"/>
<path d="M17.8333 26.5H14.9444C14.5472 26.5 14.2072 26.3586 13.9243 26.0757C13.6414 25.7928 13.5 25.4528 13.5 25.0556V20C13.5 19.0972 13.6715 18.2516 14.0146 17.4632C14.3576 16.6748 14.8211 15.9887 15.4049 15.4049C15.9887 14.8211 16.6748 14.3576 17.4632 14.0146C18.2516 13.6715 19.0972 13.5 20 13.5C20.9028 13.5 21.7484 13.6715 22.5368 14.0146C23.3252 14.3576 24.0113 14.8211 24.5951 15.4049C25.1789 15.9887 25.6424 16.6748 25.9854 17.4632C26.3285 18.2516 26.5 19.0972 26.5 20V25.0556C26.5 25.4528 26.3586 25.7928 26.0757 26.0757C25.7928 26.3586 25.4528 26.5 25.0556 26.5H22.1667V20.7222H25.0556V20C25.0556 18.5917 24.565 17.397 23.584 16.416C22.603 15.435 21.4083 14.9444 20 14.9444C18.5917 14.9444 17.397 15.435 16.416 16.416C15.435 17.397 14.9444 18.5917 14.9444 20V20.7222H17.8333V26.5ZM16.3889 22.1667H14.9444V25.0556H16.3889V22.1667ZM23.6111 22.1667V25.0556H25.0556V22.1667H23.6111Z" fill="black"/>
</svg>
