<svg width="390" height="844" viewBox="0 0 390 844" fill="none" xmlns="http://www.w3.org/2000/svg">
<path d="M254.566 -285.224C254.566 -286.178 254.056 -287.112 254.226 -287.876C254.715 -290.04 259.92 -292.564 260.94 -297.083C262.257 -302.917 259.92 -304.996 258.73 -309.685C257.965 -312.697 257.647 -315.901 256.775 -318.913C255.819 -322.138 251.336 -332.088 251.315 -334.612C251.315 -335.461 252.229 -336.055 252.335 -336.882C253.185 -343.735 253.291 -341.401 255.989 -346.769C257.88 -350.502 258.433 -352.581 257.498 -356.718C254.205 -371.251 243.114 -372.46 230.578 -374.539C221.187 -376.088 216.406 -377 194.989 -377C173.573 -377 168.792 -376.088 159.401 -374.539C146.865 -372.481 135.774 -371.251 132.481 -356.718C131.546 -352.581 132.099 -350.502 133.99 -346.769C136.709 -341.401 136.815 -343.735 137.644 -336.882C137.75 -336.055 138.685 -335.461 138.664 -334.612C138.643 -332.067 134.138 -322.117 133.203 -318.913C132.311 -315.922 131.992 -312.697 131.249 -309.685C130.059 -304.996 127.722 -302.917 129.039 -297.083C130.059 -292.564 135.264 -290.04 135.753 -287.876C135.923 -287.112 135.413 -286.178 135.413 -285.224C135.413 -225.376 70.9074 -138.522 -102 -138.522V35H492V-138.522C319.071 -138.522 254.587 -225.376 254.587 -285.224H254.566Z" fill="#97D1A7"/>
<path d="M254.566 -285.224C254.566 -286.178 254.056 -287.112 254.226 -287.876C254.715 -290.04 259.92 -292.564 260.94 -297.083C262.257 -302.917 259.92 -304.996 258.73 -309.685C257.965 -312.697 257.647 -315.901 256.775 -318.913C255.819 -322.138 251.336 -332.088 251.315 -334.612C251.315 -335.461 252.229 -336.055 252.335 -336.882C253.185 -343.735 253.291 -341.401 255.989 -346.769C257.88 -350.502 258.433 -352.581 257.498 -356.718C254.205 -371.251 243.114 -372.46 230.578 -374.539C221.187 -376.088 216.406 -377 194.989 -377C173.573 -377 168.792 -376.088 159.401 -374.539C146.865 -372.481 135.774 -371.251 132.481 -356.718C131.546 -352.581 132.099 -350.502 133.99 -346.769C136.709 -341.401 136.815 -343.735 137.644 -336.882C137.75 -336.055 138.685 -335.461 138.664 -334.612C138.643 -332.067 134.138 -322.117 133.203 -318.913C132.311 -315.922 131.992 -312.697 131.249 -309.685C130.059 -304.996 127.722 -302.917 129.039 -297.083C130.059 -292.564 135.264 -290.04 135.753 -287.876C135.923 -287.112 135.413 -286.178 135.413 -285.224C135.413 -225.376 70.9074 -138.522 -102 -138.522V35H492V-138.522C319.071 -138.522 254.587 -225.376 254.587 -285.224H254.566Z" fill="url(#paint0_linear_495_1242)"/>
<path d="M254.566 -152.224C254.566 -153.178 254.056 -154.112 254.226 -154.876C254.715 -157.04 259.92 -159.564 260.94 -164.083C262.257 -169.917 259.92 -171.996 258.73 -176.685C257.965 -179.697 257.647 -182.901 256.775 -185.913C255.819 -189.138 251.336 -199.088 251.315 -201.612C251.315 -202.461 252.229 -203.055 252.335 -203.882C253.185 -210.735 253.291 -208.401 255.989 -213.769C257.88 -217.502 258.433 -219.581 257.498 -223.718C254.205 -238.251 243.114 -239.46 230.578 -241.539C221.187 -243.088 216.406 -244 194.989 -244C173.573 -244 168.792 -243.088 159.401 -241.539C146.865 -239.481 135.774 -238.251 132.481 -223.718C131.546 -219.581 132.099 -217.502 133.99 -213.769C136.709 -208.401 136.815 -210.735 137.644 -203.882C137.75 -203.055 138.685 -202.461 138.664 -201.612C138.643 -199.067 134.138 -189.117 133.203 -185.913C132.311 -182.922 131.992 -179.697 131.249 -176.685C130.059 -171.996 127.722 -169.917 129.039 -164.083C130.059 -159.564 135.264 -157.04 135.753 -154.876C135.923 -154.112 135.413 -153.178 135.413 -152.224C135.413 -92.3761 70.9074 -5.5217 -102 -5.5217V168H492V-5.5217C319.071 -5.5217 254.587 -92.3761 254.587 -152.224H254.566Z" fill="url(#paint1_linear_495_1242)"/>
<path d="M254.566 -18.2237C254.566 -19.1784 254.056 -20.1119 254.226 -20.8756C254.715 -23.0395 259.92 -25.5641 260.94 -30.0829C262.257 -35.9171 259.92 -37.9961 258.73 -42.6847C257.965 -45.6972 257.647 -48.9007 256.775 -51.9132C255.819 -55.1379 251.336 -65.0878 251.315 -67.6123C251.315 -68.4609 252.229 -69.055 252.335 -69.8824C253.185 -76.7348 253.291 -74.4012 255.989 -79.7686C257.88 -83.5024 258.433 -85.5815 257.498 -89.7184C254.205 -104.251 243.114 -105.46 230.578 -107.539C221.187 -109.088 216.406 -110 194.989 -110C173.573 -110 168.792 -109.088 159.401 -107.539C146.865 -105.481 135.774 -104.251 132.481 -89.7184C131.546 -85.5815 132.099 -83.5024 133.99 -79.7686C136.709 -74.4012 136.815 -76.7348 137.644 -69.8824C137.75 -69.055 138.685 -68.4609 138.664 -67.6123C138.643 -65.0665 134.138 -55.1167 133.203 -51.9132C132.311 -48.9219 131.992 -45.6972 131.249 -42.6847C130.059 -37.9961 127.722 -35.9171 129.039 -30.0829C130.059 -25.5641 135.264 -23.0395 135.753 -20.8756C135.923 -20.1119 135.413 -19.1784 135.413 -18.2237C135.413 41.6239 70.9074 128.478 -102 128.478V302H492V128.478C319.071 128.478 254.587 41.6239 254.587 -18.2237H254.566Z" fill="#97D1A7"/>
<path d="M254.566 -18.2237C254.566 -19.1784 254.056 -20.1119 254.226 -20.8756C254.715 -23.0395 259.92 -25.5641 260.94 -30.0829C262.257 -35.9171 259.92 -37.9961 258.73 -42.6847C257.965 -45.6972 257.647 -48.9007 256.775 -51.9132C255.819 -55.1379 251.336 -65.0878 251.315 -67.6123C251.315 -68.4609 252.229 -69.055 252.335 -69.8824C253.185 -76.7348 253.291 -74.4012 255.989 -79.7686C257.88 -83.5024 258.433 -85.5815 257.498 -89.7184C254.205 -104.251 243.114 -105.46 230.578 -107.539C221.187 -109.088 216.406 -110 194.989 -110C173.573 -110 168.792 -109.088 159.401 -107.539C146.865 -105.481 135.774 -104.251 132.481 -89.7184C131.546 -85.5815 132.099 -83.5024 133.99 -79.7686C136.709 -74.4012 136.815 -76.7348 137.644 -69.8824C137.75 -69.055 138.685 -68.4609 138.664 -67.6123C138.643 -65.0665 134.138 -55.1167 133.203 -51.9132C132.311 -48.9219 131.992 -45.6972 131.249 -42.6847C130.059 -37.9961 127.722 -35.9171 129.039 -30.0829C130.059 -25.5641 135.264 -23.0395 135.753 -20.8756C135.923 -20.1119 135.413 -19.1784 135.413 -18.2237C135.413 41.6239 70.9074 128.478 -102 128.478V302H492V128.478C319.071 128.478 254.587 41.6239 254.587 -18.2237H254.566Z" fill="url(#paint2_linear_495_1242)"/>
<path d="M254.566 114.776C254.566 113.822 254.056 112.888 254.226 112.124C254.715 109.96 259.92 107.436 260.94 102.917C262.257 97.0829 259.92 95.0039 258.73 90.3153C257.965 87.3028 257.647 84.0993 256.775 81.0868C255.819 77.8621 251.336 67.9122 251.315 65.3877C251.315 64.5391 252.229 63.945 252.335 63.1176C253.185 56.2652 253.291 58.5988 255.989 53.2314C257.88 49.4976 258.433 47.4185 257.498 43.2816C254.205 28.7493 243.114 27.54 230.578 25.4609C221.187 23.9122 216.406 23 194.989 23C173.573 23 168.792 23.9122 159.401 25.4609C146.865 27.5188 135.774 28.7493 132.481 43.2816C131.546 47.4185 132.099 49.4976 133.99 53.2314C136.709 58.5988 136.815 56.2652 137.644 63.1176C137.75 63.945 138.685 64.5391 138.664 65.3877C138.643 67.9335 134.138 77.8833 133.203 81.0868C132.311 84.0781 131.992 87.3028 131.249 90.3153C130.059 95.0039 127.722 97.0829 129.039 102.917C130.059 107.436 135.264 109.96 135.753 112.124C135.923 112.888 135.413 113.822 135.413 114.776C135.413 174.624 70.9074 261.478 -102 261.478V435H492V261.478C319.071 261.478 254.587 174.624 254.587 114.776H254.566Z" fill="url(#paint3_linear_495_1242)"/>
<path d="M254.566 248.776C254.566 247.822 254.056 246.888 254.226 246.124C254.715 243.96 259.92 241.436 260.94 236.917C262.257 231.083 259.92 229.004 258.73 224.315C257.965 221.303 257.647 218.099 256.775 215.087C255.819 211.862 251.336 201.912 251.315 199.388C251.315 198.539 252.229 197.945 252.335 197.118C253.185 190.265 253.291 192.599 255.989 187.231C257.88 183.498 258.433 181.419 257.498 177.282C254.205 162.749 243.114 161.54 230.578 159.461C221.187 157.912 216.406 157 194.989 157C173.573 157 168.792 157.912 159.401 159.461C146.865 161.519 135.774 162.749 132.481 177.282C131.546 181.419 132.099 183.498 133.99 187.231C136.709 192.599 136.815 190.265 137.644 197.118C137.75 197.945 138.685 198.539 138.664 199.388C138.643 201.933 134.138 211.883 133.203 215.087C132.311 218.078 131.992 221.303 131.249 224.315C130.059 229.004 127.722 231.083 129.039 236.917C130.059 241.436 135.264 243.96 135.753 246.124C135.923 246.888 135.413 247.822 135.413 248.776C135.413 308.624 70.9074 395.478 -102 395.478V569H492V395.478C319.071 395.478 254.587 308.624 254.587 248.776H254.566Z" fill="#97D1A7"/>
<path d="M254.566 248.776C254.566 247.822 254.056 246.888 254.226 246.124C254.715 243.96 259.92 241.436 260.94 236.917C262.257 231.083 259.92 229.004 258.73 224.315C257.965 221.303 257.647 218.099 256.775 215.087C255.819 211.862 251.336 201.912 251.315 199.388C251.315 198.539 252.229 197.945 252.335 197.118C253.185 190.265 253.291 192.599 255.989 187.231C257.88 183.498 258.433 181.419 257.498 177.282C254.205 162.749 243.114 161.54 230.578 159.461C221.187 157.912 216.406 157 194.989 157C173.573 157 168.792 157.912 159.401 159.461C146.865 161.519 135.774 162.749 132.481 177.282C131.546 181.419 132.099 183.498 133.99 187.231C136.709 192.599 136.815 190.265 137.644 197.118C137.75 197.945 138.685 198.539 138.664 199.388C138.643 201.933 134.138 211.883 133.203 215.087C132.311 218.078 131.992 221.303 131.249 224.315C130.059 229.004 127.722 231.083 129.039 236.917C130.059 241.436 135.264 243.96 135.753 246.124C135.923 246.888 135.413 247.822 135.413 248.776C135.413 308.624 70.9074 395.478 -102 395.478V569H492V395.478C319.071 395.478 254.587 308.624 254.587 248.776H254.566Z" fill="url(#paint4_linear_495_1242)"/>
<path d="M254.566 381.776C254.566 380.822 254.056 379.888 254.226 379.124C254.715 376.96 259.92 374.436 260.94 369.917C262.257 364.083 259.92 362.004 258.73 357.315C257.965 354.303 257.647 351.099 256.775 348.087C255.819 344.862 251.336 334.912 251.315 332.388C251.315 331.539 252.229 330.945 252.335 330.118C253.185 323.265 253.291 325.599 255.989 320.231C257.88 316.498 258.433 314.419 257.498 310.282C254.205 295.749 243.114 294.54 230.578 292.461C221.187 290.912 216.406 290 194.989 290C173.573 290 168.792 290.912 159.401 292.461C146.865 294.519 135.774 295.749 132.481 310.282C131.546 314.419 132.099 316.498 133.99 320.231C136.709 325.599 136.815 323.265 137.644 330.118C137.75 330.945 138.685 331.539 138.664 332.388C138.643 334.933 134.138 344.883 133.203 348.087C132.311 351.078 131.992 354.303 131.249 357.315C130.059 362.004 127.722 364.083 129.039 369.917C130.059 374.436 135.264 376.96 135.753 379.124C135.923 379.888 135.413 380.822 135.413 381.776C135.413 441.624 70.9074 528.478 -102 528.478V702H492V528.478C319.071 528.478 254.587 441.624 254.587 381.776H254.566Z" fill="url(#paint5_linear_495_1242)"/>
<path d="M254.566 515.776C254.566 514.822 254.056 513.888 254.226 513.124C254.715 510.96 259.92 508.436 260.94 503.917C262.257 498.083 259.92 496.004 258.73 491.315C257.965 488.303 257.647 485.099 256.775 482.087C255.819 478.862 251.336 468.912 251.315 466.388C251.315 465.539 252.229 464.945 252.335 464.118C253.185 457.265 253.291 459.599 255.989 454.231C257.88 450.498 258.433 448.419 257.498 444.282C254.205 429.749 243.114 428.54 230.578 426.461C221.187 424.912 216.406 424 194.989 424C173.573 424 168.792 424.912 159.401 426.461C146.865 428.519 135.774 429.749 132.481 444.282C131.546 448.419 132.099 450.498 133.99 454.231C136.709 459.599 136.815 457.265 137.644 464.118C137.75 464.945 138.685 465.539 138.664 466.388C138.643 468.933 134.138 478.883 133.203 482.087C132.311 485.078 131.992 488.303 131.249 491.315C130.059 496.004 127.722 498.083 129.039 503.917C130.059 508.436 135.264 510.96 135.753 513.124C135.923 513.888 135.413 514.822 135.413 515.776C135.413 575.624 70.9074 662.478 -102 662.478V836H492V662.478C319.071 662.478 254.587 575.624 254.587 515.776H254.566Z" fill="#97D1A7"/>
<path d="M254.566 515.776C254.566 514.822 254.056 513.888 254.226 513.124C254.715 510.96 259.92 508.436 260.94 503.917C262.257 498.083 259.92 496.004 258.73 491.315C257.965 488.303 257.647 485.099 256.775 482.087C255.819 478.862 251.336 468.912 251.315 466.388C251.315 465.539 252.229 464.945 252.335 464.118C253.185 457.265 253.291 459.599 255.989 454.231C257.88 450.498 258.433 448.419 257.498 444.282C254.205 429.749 243.114 428.54 230.578 426.461C221.187 424.912 216.406 424 194.989 424C173.573 424 168.792 424.912 159.401 426.461C146.865 428.519 135.774 429.749 132.481 444.282C131.546 448.419 132.099 450.498 133.99 454.231C136.709 459.599 136.815 457.265 137.644 464.118C137.75 464.945 138.685 465.539 138.664 466.388C138.643 468.933 134.138 478.883 133.203 482.087C132.311 485.078 131.992 488.303 131.249 491.315C130.059 496.004 127.722 498.083 129.039 503.917C130.059 508.436 135.264 510.96 135.753 513.124C135.923 513.888 135.413 514.822 135.413 515.776C135.413 575.624 70.9074 662.478 -102 662.478V836H492V662.478C319.071 662.478 254.587 575.624 254.587 515.776H254.566Z" fill="url(#paint6_linear_495_1242)"/>
<path d="M254.566 648.776C254.566 647.822 254.056 646.888 254.226 646.124C254.715 643.96 259.92 641.436 260.94 636.917C262.257 631.083 259.92 629.004 258.73 624.315C257.965 621.303 257.647 618.099 256.775 615.087C255.819 611.862 251.336 601.912 251.315 599.388C251.315 598.539 252.229 597.945 252.335 597.118C253.185 590.265 253.291 592.599 255.989 587.231C257.88 583.498 258.433 581.419 257.498 577.282C254.205 562.749 243.114 561.54 230.578 559.461C221.187 557.912 216.406 557 194.989 557C173.573 557 168.792 557.912 159.401 559.461C146.865 561.519 135.774 562.749 132.481 577.282C131.546 581.419 132.099 583.498 133.99 587.231C136.709 592.599 136.815 590.265 137.644 597.118C137.75 597.945 138.685 598.539 138.664 599.388C138.643 601.933 134.138 611.883 133.203 615.087C132.311 618.078 131.992 621.303 131.249 624.315C130.059 629.004 127.722 631.083 129.039 636.917C130.059 641.436 135.264 643.96 135.753 646.124C135.923 646.888 135.413 647.822 135.413 648.776C135.413 708.624 70.9074 795.478 -102 795.478V969H492V795.478C319.071 795.478 254.587 708.624 254.587 648.776H254.566Z" fill="url(#paint7_linear_495_1242)"/>
<path d="M254.566 921.776C254.566 920.822 254.056 919.888 254.226 919.124C254.715 916.96 259.92 914.436 260.94 909.917C262.257 904.083 259.92 902.004 258.73 897.315C257.965 894.303 257.647 891.099 256.775 888.087C255.819 884.862 251.336 874.912 251.315 872.388C251.315 871.539 252.229 870.945 252.335 870.118C253.185 863.265 253.291 865.599 255.989 860.231C257.88 856.498 258.433 854.419 257.498 850.282C254.205 835.749 243.114 834.54 230.578 832.461C221.187 830.912 216.406 830 194.989 830C173.573 830 168.792 830.912 159.401 832.461C146.865 834.519 135.774 835.749 132.481 850.282C131.546 854.419 132.099 856.498 133.99 860.231C136.709 865.599 136.815 863.265 137.644 870.118C137.75 870.945 138.685 871.539 138.664 872.388C138.643 874.933 134.138 884.883 133.203 888.087C132.311 891.078 131.992 894.303 131.249 897.315C130.059 902.004 127.722 904.083 129.039 909.917C130.059 914.436 135.264 916.96 135.753 919.124C135.923 919.888 135.413 920.822 135.413 921.776C135.413 981.624 70.9074 1068.48 -102 1068.48V1242H492V1068.48C319.071 1068.48 254.587 981.624 254.587 921.776H254.566Z" fill="#97D1A7"/>
<path d="M254.566 921.776C254.566 920.822 254.056 919.888 254.226 919.124C254.715 916.96 259.92 914.436 260.94 909.917C262.257 904.083 259.92 902.004 258.73 897.315C257.965 894.303 257.647 891.099 256.775 888.087C255.819 884.862 251.336 874.912 251.315 872.388C251.315 871.539 252.229 870.945 252.335 870.118C253.185 863.265 253.291 865.599 255.989 860.231C257.88 856.498 258.433 854.419 257.498 850.282C254.205 835.749 243.114 834.54 230.578 832.461C221.187 830.912 216.406 830 194.989 830C173.573 830 168.792 830.912 159.401 832.461C146.865 834.519 135.774 835.749 132.481 850.282C131.546 854.419 132.099 856.498 133.99 860.231C136.709 865.599 136.815 863.265 137.644 870.118C137.75 870.945 138.685 871.539 138.664 872.388C138.643 874.933 134.138 884.883 133.203 888.087C132.311 891.078 131.992 894.303 131.249 897.315C130.059 902.004 127.722 904.083 129.039 909.917C130.059 914.436 135.264 916.96 135.753 919.124C135.923 919.888 135.413 920.822 135.413 921.776C135.413 981.624 70.9074 1068.48 -102 1068.48V1242H492V1068.48C319.071 1068.48 254.587 981.624 254.587 921.776H254.566Z" fill="url(#paint8_linear_495_1242)"/>
<defs>
<linearGradient id="paint0_linear_495_1242" x1="195" y1="-433.217" x2="195" y2="-25" gradientUnits="userSpaceOnUse">
<stop stop-color="#97D1A7"/>
<stop offset="1" stop-color="#53705B"/>
</linearGradient>
<linearGradient id="paint1_linear_495_1242" x1="195" y1="-279.107" x2="195" y2="91.9999" gradientUnits="userSpaceOnUse">
<stop stop-color="#B50006"/>
<stop offset="0.5" stop-color="#F50008"/>
<stop offset="1" stop-color="#B50006"/>
</linearGradient>
<linearGradient id="paint2_linear_495_1242" x1="195" y1="-166.217" x2="195" y2="242" gradientUnits="userSpaceOnUse">
<stop stop-color="#97D1A7"/>
<stop offset="1" stop-color="#53705B"/>
</linearGradient>
<linearGradient id="paint3_linear_495_1242" x1="195" y1="-12.1067" x2="195" y2="359" gradientUnits="userSpaceOnUse">
<stop stop-color="#B50006"/>
<stop offset="0.5" stop-color="#F50008"/>
<stop offset="1" stop-color="#B50006"/>
</linearGradient>
<linearGradient id="paint4_linear_495_1242" x1="195" y1="100.783" x2="195" y2="509" gradientUnits="userSpaceOnUse">
<stop stop-color="#97D1A7"/>
<stop offset="1" stop-color="#53705B"/>
</linearGradient>
<linearGradient id="paint5_linear_495_1242" x1="195" y1="254.893" x2="195" y2="626" gradientUnits="userSpaceOnUse">
<stop stop-color="#B50006"/>
<stop offset="0.5" stop-color="#F50008"/>
<stop offset="1" stop-color="#B50006"/>
</linearGradient>
<linearGradient id="paint6_linear_495_1242" x1="195" y1="367.783" x2="195" y2="776" gradientUnits="userSpaceOnUse">
<stop stop-color="#97D1A7"/>
<stop offset="1" stop-color="#53705B"/>
</linearGradient>
<linearGradient id="paint7_linear_495_1242" x1="195" y1="521.893" x2="195" y2="893" gradientUnits="userSpaceOnUse">
<stop stop-color="#B50006"/>
<stop offset="0.5" stop-color="#F50008"/>
<stop offset="1" stop-color="#B50006"/>
</linearGradient>
<linearGradient id="paint8_linear_495_1242" x1="195" y1="773.783" x2="195" y2="1182" gradientUnits="userSpaceOnUse">
<stop stop-color="#97D1A7"/>
<stop offset="1" stop-color="#53705B"/>
</linearGradient>
</defs>
</svg>
