<svg width="41" height="139" viewBox="0 0 41 139" fill="none" xmlns="http://www.w3.org/2000/svg">
<path d="M13.285 3.53587C13.177 3.11734 12.9198 2.94618 12.68 2.78667C12.4165 2.6114 12.1742 2.4502 12.1742 1.99031C12.1742 1.11191 13.0583 0 13.7271 0H27.2615C27.9303 0 28.8145 1.10078 28.8145 1.99031C28.8145 2.45535 28.5728 2.61346 28.3098 2.78555C28.0697 2.94264 27.8118 3.11139 27.7036 3.53587M13.285 3.53587L29.4719 8.17255C29.3683 7.42909 28.9028 6.53128 28.4727 5.70186C28.0087 4.80699 27.586 3.99174 27.7036 3.53587M13.285 3.53587C13.4035 4.00072 12.9772 4.82385 12.5107 5.72443C12.0846 6.54721 11.625 7.43465 11.5167 8.17255M13.285 3.53587L40.5 128.848C40.5 129.018 40.4979 129.185 40.494 129.348M27.7036 3.53587L27.2195 3.41092C27.2194 3.41141 27.2192 3.4119 27.2191 3.41238M27.7036 3.53587L27.2191 3.41238M11.5167 8.17255L12.012 8.24078C12.0119 8.24152 12.0118 8.24225 12.0117 8.24298M11.5167 8.17255L12.0114 8.24512C12.0115 8.2444 12.0116 8.2437 12.0117 8.24298M11.5167 8.17255C11.3467 9.40677 12.1855 9.71811 12.6276 9.71811V10.2181V13.2429C12.6276 21.1288 9.79432 28.2247 7.53283 33.8887C6.63114 36.1469 5.82035 38.1776 5.31628 39.9398C3.54797 46.111 0.668786 61.333 0.668786 74.5759C0.668786 82.9715 1.826 92.8687 2.67314 100.114C3.16223 104.297 3.54797 107.596 3.54797 109.212C3.54797 111.478 2.61326 115.545 1.70337 119.504C0.840529 123.259 0 126.916 0 128.848C0 132.982 1.19392 135.395 1.96977 136.963C2.05586 137.136 2.1368 137.3 2.2104 137.454C2.31423 137.479 2.42146 137.506 2.53294 137.533C4.7095 138.063 8.5094 138.989 20.3923 139L38.4424 137.024M12.0117 8.24298C12.0589 7.92404 12.1903 7.54623 12.3776 7.12386C12.5477 6.74037 12.7513 6.34731 12.9555 5.95284C12.9754 5.91454 12.9952 5.87622 13.015 5.83789C13.2339 5.41478 13.4538 4.9838 13.6026 4.59853C13.7413 4.23978 13.8688 3.8018 13.7696 3.41238L13.7692 3.41092C13.6124 2.80344 13.2111 2.53827 12.965 2.37564C12.9503 2.36591 12.9361 2.35654 12.9226 2.34749C12.7957 2.26266 12.7473 2.22151 12.7186 2.1825C12.7029 2.16121 12.6742 2.11678 12.6742 1.99031C12.6742 1.6994 12.8312 1.30788 13.093 0.97464C13.2194 0.813736 13.3551 0.686569 13.4797 0.60347C13.6094 0.516968 13.6936 0.5 13.7271 0.5H27.2615C27.2963 0.5 27.381 0.517242 27.5104 0.602859C27.6348 0.685181 27.7701 0.811279 27.8962 0.971146C28.1568 1.30177 28.3145 1.69316 28.3145 1.99031C28.3145 2.12108 28.285 2.16547 28.2705 2.18506C28.243 2.22231 28.1963 2.26183 28.0693 2.34535C28.0562 2.35397 28.0425 2.36288 28.0283 2.37213C27.7802 2.53343 27.3762 2.79617 27.2191 3.41238M12.0117 8.24298C11.945 8.73112 12.0818 8.94551 12.1875 9.0461C12.317 9.16949 12.5024 9.21811 12.6276 9.21811H13.1276V9.71811V13.2429C13.1276 18.8398 11.7215 24.0301 10.1062 28.5767C9.41199 30.5308 8.6765 32.3727 7.99673 34.0752C7.88595 34.3527 7.77666 34.6264 7.66926 34.8963C6.89988 36.8298 6.23118 38.5594 5.79701 40.0774L5.79694 40.0776C4.03948 46.2108 1.16879 61.3863 1.16879 74.5759C1.16879 81.1674 1.88571 88.6992 2.60529 95.1492C2.78508 96.7607 2.96489 98.3035 3.1336 99.7467L3.16978 100.056C3.32478 101.382 3.46958 102.62 3.59501 103.745C3.86411 106.157 4.04797 108.075 4.04797 109.212C4.04797 110.367 3.81782 111.938 3.48468 113.678C3.15005 115.426 2.70445 117.38 2.26129 119.309C2.23795 119.41 2.21462 119.512 2.19132 119.613C1.77105 121.442 1.35829 123.238 1.04487 124.823C0.712154 126.506 0.5 127.91 0.5 128.848C0.5 132.863 1.64938 135.187 2.4192 136.743C2.46692 136.84 2.51319 136.933 2.55763 137.024C2.58897 137.032 2.62065 137.039 2.6527 137.047C4.7941 137.57 8.56266 138.489 20.3925 138.5H20.3927H20.3929H20.3931H20.3933H20.3935H20.3937H20.3939H20.3941H20.3943H20.3945H20.3947H20.3949H20.3951H20.3953H20.3955H20.3957H20.3959H20.3961H20.3963H20.3965H20.3967H20.3969H20.3971H20.3973H20.3975H20.3977H20.3979H20.3981H20.3983H20.3985H20.3987H20.3989H20.3991H20.3993H20.3995H20.3997H20.3999H20.4001H20.4003H20.4005H20.4007H20.4009H20.4011H20.4013H20.4015H20.4017H20.4019H20.4021H20.4023H20.4025H20.4027H20.4029H20.4031H20.4033H20.4035H20.4037H20.4039H20.4041H20.4043H20.4045H20.4047H20.4049H20.4051H20.4053H20.4055H20.4057H20.4059H20.4061H20.4063H20.4065H20.4067H20.4069H20.4071H20.4073H20.4075H20.4077H20.4079H20.4081H20.4083H20.4085H20.4087H20.4089H20.4091H20.4093H20.4095H20.4097H20.4098H20.41H20.4102H20.4104H20.4106H20.4108H20.411H20.4112H20.4114H20.4116H20.4118H20.412H20.4122H20.4124H20.4126H20.4128H20.413H20.4132H20.4134H20.4136H20.4138H20.414H20.4142H20.4144H20.4146H20.4148H20.415H20.4152H20.4154H20.4156H20.4158H20.416H20.4162H20.4164H20.4166H20.4168H20.417H20.4172H20.4174H20.4176H20.4178H20.418H20.4182H20.4184H20.4186H20.4188H20.419H20.4192H20.4194H20.4196H20.4198H20.42H20.4202H20.4204H20.4206H20.4208H20.421H20.4212H20.4214H20.4216H20.4218H20.422H20.4222H20.4224H20.4226H20.4228H20.423H20.4232H20.4234H20.4236H20.4238H20.424H20.4242H20.4244H20.4246H20.4248H20.425H20.4252H20.4254H20.4256H20.4258H20.426H20.4262H20.4264H20.4266H20.4268H20.427H20.4272H20.4274H20.4276H20.4278H20.428H20.4282H20.4284H20.4286H20.4288H20.429H20.4292H20.4294H20.4296H20.4298H20.43H20.4302H20.4304H20.4306H20.4308H20.431H20.4312H20.4314H20.4316H20.4318H20.432H20.4322H20.4324H20.4326H20.4328H20.433H20.4332H20.4334H20.4336H20.4338H20.434H20.4342H20.4344H20.4346H20.4348H20.435H20.4352H20.4354H20.4356H20.4358H20.436H20.4362H20.4363H20.4366H20.4367H20.4369H20.4371H20.4373H20.4375H20.4377H20.4379H20.4381H20.4383H20.4385H20.4387H20.4389H20.4391H20.4393H20.4395H20.4397H20.4399H20.4401H20.4403H20.4405H20.4407H20.4409H20.4411H20.4413H20.4415H20.4417H20.4419H20.4421H20.4423H20.4425H20.4427H20.4429H20.4431H20.4433H20.4435H20.4437H20.4439H20.4441H20.4443H20.4445H20.4447H20.4449H20.4451H20.4453H20.4455H20.4457H20.4459H20.4461H20.4463H20.4465H20.4467H20.4469H20.4471H20.4473H20.4475H20.4477H20.4479H20.4481H20.4483H20.4485H20.4487H20.4489H20.4491H20.4493H20.4495H20.4497H20.4499H20.4501H20.4503H20.4505H20.4507H20.4509H20.4511H20.4513H20.4515H20.4517H20.4519H20.4521H20.4523H20.4525H20.4527H20.4529H20.4531H20.4533H20.4535H20.4537H20.4539H20.4541H20.4543H20.4545H20.4547H20.4549H20.4551H20.4553H20.4555H20.4557H20.4559H20.4561H20.4563H20.4565H20.4567H20.4569H20.4571H20.4573H20.4575H20.4577H20.4579H20.4581H20.4583H20.4585H20.4587H20.4589H20.4591H20.4593H20.4595H20.4597H20.4599H20.4601H20.4603H20.4605H20.4607H20.4609H20.4611H20.4613H20.4615H20.4617H20.4619H20.4621H20.4623H20.4625H20.4627H20.4629H20.4631H20.4632H20.4634H20.4636H20.4638H20.464H20.4642H20.4644H20.4646H20.4648H20.465H20.4652H20.4654H20.4656H20.4658H20.466H20.4662H20.4664H20.4666H20.4668H20.467H20.4672H20.4674H20.4676H20.4678H20.468H20.4682H20.4684H20.4686H20.4688H20.469H20.4692H20.4694H20.4696H20.4698H20.47H20.4702H20.4704H20.4706H20.4708H20.471H20.4712H20.4714H20.4716H20.4718H20.472H20.4722H20.4724H20.4726H20.4728H20.473H20.4732H20.4734H20.4736H20.4738H20.474H20.4742H20.4744H20.4746H20.4748H20.475H20.4752H20.4754H20.4756H20.4758H20.476H20.4762H20.4764H20.4766H20.4768H20.477H20.4772H20.4774H20.4776H20.4778H20.478H20.4782H20.4784H20.4786H20.4788H20.479H20.4792H20.4794H20.4796H20.4798H20.48H20.4802H20.4804H20.4806H20.4808H20.481H20.4812H20.4814H20.4816H20.4818H20.482H20.4822H20.4824H20.4826H20.4828H20.483H20.4832H20.4834H20.4836H20.4838H20.484H20.4842H20.4844H20.4846H20.4848H20.485H20.4852H20.4854H20.4856H20.4858H20.486H20.4862H20.4864H20.4866H20.4868H20.487H20.4872H20.4874H20.4876H20.4878H20.488H20.4882H20.4884H20.4886H20.4888H20.489H20.4892H20.4894H20.4896H20.4897H20.49H20.4901H20.4903H20.4905H20.4907H20.4909H20.4911H20.4913H20.4915H20.4917H20.4919H20.4921H20.4923H20.4925H20.4927H20.4929H20.4931H20.4933H20.4935H20.4937H20.4939H20.4941H20.4943H20.4945H20.4947H20.4949H20.4951H20.4953H20.4955H20.4957H20.496H20.4962H20.4964H20.4966H20.4968H20.497H20.4972H20.4974H20.4976H20.4978H20.498H20.4983H20.4985H20.4987H20.4989H20.4991H20.4993H20.4995H20.4998H20.5H20.5002H20.5004H20.5006H20.5009H20.5011H20.5013H20.5015H20.5018H20.502H20.5022H20.5024H20.5027H20.5029H20.5031H20.5033H20.5036H20.5038H20.504H20.5042H20.5045H20.5047H20.5049H20.5052H20.5054H20.5056H20.5059H20.5061H20.5063H20.5066H20.5068H20.5071H20.5073H20.5075H20.5078H20.508H20.5082H20.5085H20.5087H20.509H20.5092H20.5094H20.5097H20.5099H20.5102H20.5104H20.5107H20.5109H20.5111H20.5114H20.5116H20.5119H20.5121H20.5124H20.5126H20.5129H20.5131H20.5134H20.5136H20.5139H20.5141H20.5144H20.5146H20.5149H20.5151H20.5154H20.5156H20.5159H20.5161H20.5164H20.5166H20.5169H20.5171H20.5174H20.5176H20.5179H20.5182H20.5184H20.5187H20.5189H20.5192H20.5194H20.5197H20.5199H20.5202H20.5205H20.5207H20.521H20.5212H20.5215H20.5218H20.522H20.5223H20.5225H20.5228H20.5231H20.5233H20.5236H20.5238H20.5241H20.5244H20.5246H20.5249H20.5251H20.5254H20.5257H20.5259H20.5262H20.5265H20.5267H20.527H20.5272H20.5275H20.5278H20.528H20.5283H20.5286H20.5288H20.5291H20.5294H20.5296H20.5299H20.5301H20.5304H20.5307H20.5309H20.5312H20.5315H20.5317H20.532H20.5323H20.5325H20.5328H20.5331H20.5333H20.5336H20.5339H20.5341H20.5344H20.5347H20.5349H20.5352H20.5355H20.5357H20.536H20.5363H20.5365H20.5368H20.537H20.5373H20.5376H20.5378H20.5381H20.5384H20.5386H20.5389H20.5392H20.5394H20.5397H20.54H20.5402H20.5405H20.5408H20.541H20.5413H20.5416H20.5418H20.5421H20.5424H20.5426H20.5429H20.5431H20.5434H20.5437H20.5439H20.5442H20.5445H20.5447H20.545H20.5452H20.5455H20.5458H20.546H20.5463H20.5466H20.5468H20.5471H20.5473H20.5476H20.5479H20.5481H20.5484H20.5487H20.5489H20.5492H20.5494H20.5497H20.5499H20.5502H20.5505H20.5507H20.551H20.5512H20.5515H20.5518H20.552H20.5523H20.5525H20.5528H20.553H20.5533H20.5536H20.5538H20.5541H20.5543H20.5546H20.5548H20.5551H20.5553H20.5556H20.5558H20.5561H20.5563H20.5566H20.5568H20.5571H20.5573H20.5576H20.5578H20.5581H20.5583H20.5586H20.5588H20.5591H20.5593H20.5596H20.5598H20.5601H20.5603H20.5606H20.5608H20.5611H20.5613H20.5615H20.5618H20.562H20.5623H20.5625H20.5628H20.563H20.5632H20.5635H20.5637H20.5639H20.5642H20.5644H20.5647H20.5649H20.5651H20.5654H20.5656H20.5658H20.5661H20.5663H20.5665H20.5668H20.567H20.5672H20.5675H20.5677H20.5679H20.5682H20.5684H20.5686H20.5688H20.5691H20.5693H20.5695H20.5697H20.57H20.5702H20.5704H20.5706H20.5709H20.5711H20.5713H20.5715H20.5717H20.572H20.5722H20.5724H20.5726H20.5728H20.573H20.5733H20.5735H20.5737H20.5739H20.5741H20.5743H20.5745H20.5747H20.5749H20.5752H20.5754H20.5756H20.5758H20.576H20.5762H20.5764H20.5766H20.5768H20.577H20.5772H20.5774H20.5776H20.5778H20.578H20.5782H20.5784H20.5786H20.5788H20.579H20.5792H20.5793H20.5795H20.5797H20.5799H20.5801H20.5803H20.5805H20.5807H20.5809H20.581H20.5812H20.5814H20.5816H20.5818H20.5819H20.5821H20.5823H20.5825H20.5827H20.5828H20.583H20.5832H20.5834H20.5835H20.5837H20.5839H20.584H20.5842H20.5844H20.5845H20.5847H20.5849H20.585H20.5852H20.5854H20.5855H20.5857H20.5858H20.586H20.5861H20.5863H20.5865H20.5866H20.5868H20.5869H20.5871H20.5872H20.5874H20.5875H20.5877H20.5878H20.5879H20.5881H20.5882H20.5884H20.5885H20.5886H20.5888H20.5889H20.5891H20.5892H20.5893H20.5895H20.5896H20.5897H20.5899H20.59H20.5901H20.5902H20.5904H20.5905H20.5906H20.5907H20.5908H20.591H20.5911H20.5912H20.5913H20.5914H20.5915H20.5916H20.5918H20.5919H20.592H20.5921H20.5922H20.5923H20.5924H20.5925H20.5926H20.5927H20.5928H20.5929H20.593H20.5931H20.5932H20.5933H20.5934H20.5935H20.5935H20.5936H20.5937H20.5938H20.5939H20.594H20.594H20.5941H20.5942H20.5943H20.5944H20.5944H20.5945H20.5946H20.5946H20.5947H20.5948H20.5948H20.5949H20.595H20.595H20.5951H20.5952H20.5952H20.5953H20.5953H20.5954H20.5954H20.5955H20.5955H20.5956H20.5956H20.5957H20.5957H20.5958H20.5958H20.5958H20.5959H20.5959H20.5959H20.596H20.596H20.596H20.5961H20.5961H20.5961C32.4372 138.489 36.2062 137.57 38.3476 137.047C38.3795 137.039 38.4111 137.032 38.4424 137.024M27.2191 3.41238C27.1194 3.8009 27.2494 4.23898 27.3881 4.59506C27.5378 4.9794 27.7587 5.41058 27.978 5.834L28.0273 5.92915C28.2355 6.33066 28.4432 6.73128 28.6155 7.12149C28.8026 7.54538 28.9324 7.92358 28.9767 8.24155L28.9772 8.24524C29.0489 8.73259 28.9121 8.94516 28.8065 9.0451C28.6757 9.16895 28.4872 9.21811 28.3611 9.21811H27.8611V9.71811V13.2429C27.8611 18.8398 29.2672 24.0301 30.8825 28.5767C31.5767 30.5308 32.3122 32.3728 32.992 34.0753C33.1027 34.3527 33.212 34.6264 33.3194 34.8963C34.0888 36.8298 34.7575 38.5594 35.1917 40.0774C36.9492 46.2219 39.8199 61.3975 39.8199 74.5759C39.8199 81.1619 39.103 88.6936 38.3834 95.145C38.2036 96.7569 38.0238 98.3001 37.8551 99.7438L37.8195 100.048C37.6643 101.376 37.5193 102.617 37.3937 103.743C37.1245 106.156 36.9407 108.075 36.9407 109.212C36.9407 110.367 37.1708 111.938 37.504 113.678C37.8386 115.426 38.2842 117.38 38.7274 119.309C38.7507 119.41 38.7741 119.512 38.7974 119.614C39.2176 121.442 39.6304 123.238 39.9438 124.823C40.2765 126.506 40.4887 127.91 40.4887 128.848V129.348H40.494M40.494 129.348C40.4035 133.058 39.3181 135.253 38.5808 136.743C38.5331 136.84 38.4868 136.933 38.4424 137.024M40.494 129.348L38.4424 137.024" stroke="#DAD9D9"/>
<mask id="mask0_517_339" style="mask-type:alpha" maskUnits="userSpaceOnUse" x="0" y="0" width="41" height="139">
<path d="M41 128.848C41 133.44 39.5264 135.909 38.7896 137.454C36.6586 137.966 33.0993 138.989 20.5964 139C20.5964 139 20.5283 139 20.4943 139C20.4603 139 20.4263 139 20.3923 139C7.90075 138.989 4.34144 137.966 2.2104 137.454C1.4736 135.909 0 133.44 0 128.848C0 124.879 3.54797 113.626 3.54797 109.212C3.54797 104.798 0.668786 87.8187 0.668786 74.5759C0.668786 61.333 3.54797 46.111 5.31628 39.9398C7.0846 33.7576 12.6276 24.273 12.6276 13.2429V9.71811C12.1855 9.71811 11.3467 9.40677 11.5167 8.17255C11.7434 6.62698 13.5118 4.4254 13.285 3.53587C13.0583 2.65747 12.1742 2.86871 12.1742 1.99031C12.1742 1.11191 13.0583 0 13.7271 0H27.2615C27.9303 0 28.8145 1.10078 28.8145 1.99031C28.8145 2.87984 27.9303 2.64635 27.7036 3.53587C27.4769 4.41428 29.2566 6.62698 29.4719 8.17255C29.6533 9.40677 28.8032 9.71811 28.3611 9.71811V13.2429C28.3611 24.273 33.9041 33.7576 35.6724 39.9398C37.4407 46.1221 40.3199 61.3441 40.3199 74.5759C40.3199 87.8076 37.4407 104.798 37.4407 109.212C37.4407 113.626 40.9887 124.879 40.9887 128.848H41Z" fill="url(#paint0_linear_517_339)"/>
</mask>
<g mask="url(#mask0_517_339)">
<rect x="-19" y="78" width="79" height="66" fill="#D9D9D9"/>
</g>
<defs>
<linearGradient id="paint0_linear_517_339" x1="20.5" y1="139" x2="20.5" y2="0" gradientUnits="userSpaceOnUse">
<stop stop-color="white"/>
<stop offset="1" stop-color="#CCCCCC"/>
</linearGradient>
</defs>
</svg>
