<svg width="35" height="119" viewBox="0 0 35 119" fill="none" xmlns="http://www.w3.org/2000/svg">
<path d="M35 8.69106C35 4.75962 33.7421 2.64635 33.1131 1.32317C31.2939 0.885289 28.2555 0.00951924 17.5823 0C17.5823 0 17.5242 0 17.4952 0C17.4661 0 17.4371 0 17.4081 0C6.74454 0.00951924 3.70611 0.885289 1.88692 1.32317C1.25795 2.64635 0 4.75962 0 8.69106C0 12.0894 3.02875 21.7229 3.02875 25.502C3.02875 29.2812 0.570915 43.8171 0.570915 55.1545C0.570915 66.4919 3.02875 79.5237 4.53829 84.8069C6.04783 90.0996 10.7797 98.2195 10.7797 107.663V110.68C10.4023 110.68 9.6862 110.947 9.83135 112.003C10.0249 113.327 11.5344 115.211 11.3409 115.973C11.1474 116.725 10.3926 116.544 10.3926 117.296C10.3926 118.048 11.1474 119 11.7183 119H23.272C23.843 119 24.5977 118.058 24.5977 117.296C24.5977 116.535 23.843 116.734 23.6494 115.973C23.4559 115.221 24.9751 113.327 25.159 112.003C25.3138 110.947 24.5881 110.68 24.2107 110.68V107.663C24.2107 98.2195 28.9425 90.0996 30.452 84.8069C31.9616 79.5142 34.4194 66.4824 34.4194 55.1545C34.4194 43.8266 31.9616 29.2812 31.9616 25.502C31.9616 21.7229 34.9903 12.0894 34.9903 8.69106H35Z" fill="white"/>
</svg>
