<svg width="83" height="25" viewBox="0 0 83 25" fill="none" xmlns="http://www.w3.org/2000/svg">
<path d="M58.1443 1.91971C58.1443 1.91971 56.5885 2.51447 54.779 4.42962C52.9694 6.34477 51.9156 8.49834 52.6955 9.07108C52.9951 9.28876 53.686 9.33023 54.9395 8.24178C56.0964 7.27724 57.0045 6.06812 57.5924 4.70951C58.4021 2.81379 58.1443 1.94303 58.1443 1.9223M68.0475 5.36517C66.0369 4.3752 64.5674 3.16236 63.0386 2.4121C61.5799 1.69295 60.6366 1.39233 59.4573 1.54394C59.2928 1.5721 59.1305 1.61106 58.9715 1.66056C58.9715 1.66056 59.5787 3.65216 57.162 6.99784C54.7142 10.3902 52.4931 10.3668 51.8616 9.43519C51.2004 8.4517 52.0546 6.44714 53.4809 4.66286C54.9746 2.79695 57.5978 1.2498 57.5978 1.2498C57.5978 1.2498 56.7612 0.758698 54.7075 1.87695C52.7036 2.96281 49.2546 5.55435 46.0539 9.92499C42.8531 14.2956 42.2189 16.7006 41.7601 18.5937C41.3013 20.4868 41.7183 22.5147 43.9043 22.5147C46.0903 22.5147 48.6352 19.3129 49.3531 18.1998C50.6876 16.1266 51.558 12.9467 49.7417 13.3834C48.8471 13.5985 48.1225 14.5496 47.665 15.4657C47.3762 16.0541 47.1554 16.6711 47.0065 17.3057C46.3718 17.5569 45.7758 17.8899 45.2348 18.2957C44.6329 18.7238 44.0704 19.2006 43.5534 19.721C43.5534 19.721 43.5615 18.2076 44.8178 15.7586C46.0741 13.3095 48.3802 12.1913 49.6864 12.0863C50.8631 11.9956 52.3946 12.9545 51.0965 16.492C49.7984 20.0294 45.9688 24.3301 41.9463 24.3832C38.2342 24.4325 35.8053 19.883 40.9721 11.9438C46.6908 3.17272 53.3986 0.481403 55.5765 0.18208C57.7544 -0.117244 58.4628 0.805346 58.4628 0.805346C59.7738 0.288858 61.1898 0.0646795 62.604 0.149685C65.2637 0.322023 67.3202 2.12963 70.0351 3.39948C69.3294 4.04737 68.656 4.72765 68.0488 5.36517M79.9963 2.4121C78.153 3.5472 75.6027 4.57604 73.1522 4.35576C72.5315 4.97125 71.8676 5.68393 71.2023 6.46139C75.4515 7.26866 79.1745 4.74061 81.154 2.58833C81.8757 1.81451 82.4957 0.958504 83 0.0395447C82.0988 0.940944 81.0901 1.73728 79.9949 2.4121M74.337 13.9082C74.3691 13.8544 74.3954 13.7975 74.4152 13.7384C74.4026 13.645 74.357 13.5585 74.286 13.4935C74.2151 13.4284 74.123 13.3886 74.0252 13.3808C73.6204 13.3627 73.0685 13.4365 71.6206 14.9759C70.4195 16.2471 69.3857 17.6554 68.5427 19.169C67.7142 20.6229 67.3782 21.7061 67.8545 21.986C68.0093 22.063 68.1887 22.0806 68.3565 22.0353C68.679 21.9614 69.0447 21.6712 69.6006 21.0531C69.861 20.7628 70.1498 20.3521 70.4953 19.8973C71.4533 18.6455 73.8606 14.7051 74.337 13.9082ZM59.2967 15.5823C59.5382 14.9759 59.8459 13.7851 59.2063 13.3173C58.5195 12.821 56.768 13.9859 56.7585 15.1806C56.7464 16.4039 57.9919 16.9571 58.2901 17.0349C58.4601 17.0789 58.5195 17.0725 58.6018 16.9416C58.8659 16.5045 59.0981 16.0503 59.2967 15.5823ZM57.9716 17.8072C57.5376 17.6147 57.1327 17.3667 56.768 17.0699C56.4022 16.7753 56.0966 16.4181 55.8666 16.0164C55.8423 15.9775 55.818 16.0073 55.791 16.0423C55.764 16.0773 55.6561 16.1719 54.7223 17.4858C53.7885 18.7997 52.3541 21.5222 53.6522 21.986C54.4835 22.2828 55.8666 20.8846 56.6209 19.9582C57.1348 19.3115 57.6006 18.6308 58.0148 17.9212C58.0539 17.8422 58.0148 17.824 57.973 17.8072M72.6974 20.952C72.3453 21.4936 71.9431 22.5329 73.1023 21.8863C74.5205 21.0997 76.5405 18.157 76.5405 18.157H77.4567C76.623 19.388 75.6948 20.5574 74.6797 21.6556C73.2426 23.1846 71.4898 24.5737 70.2551 24.4363C68.8126 24.2744 69.2646 22.4564 69.2646 22.4564C69.2646 22.4564 67.2014 24.5659 65.7738 24.4143C63.8455 24.2096 64.4338 21.9212 64.4338 21.9212C64.4338 21.9212 62.2532 24.4908 60.7675 24.4117C58.4385 24.2821 59.0241 21.561 59.6718 19.6446C60.0186 18.6196 60.3398 17.8149 60.3398 17.8149C60.3398 17.8149 60.109 17.8733 59.6125 17.9445C59.3534 17.9795 58.8811 18.0054 58.8811 18.0054C58.8811 18.0054 57.9109 19.6485 57.135 20.6358C56.3591 21.6232 53.0612 25.0272 51.1208 24.3456C49.3261 23.7159 49.9198 21.0777 50.9643 18.9811C52.4891 15.9244 56.7774 11.533 59.2508 12.1135C61.8147 12.7109 59.3089 17.2033 59.3089 17.2033C59.3089 17.2033 59.3089 17.2202 59.3358 17.2318C59.3871 17.25 59.5207 17.2642 59.8297 17.2059C60.1499 17.1432 60.4638 17.0535 60.7675 16.9377C60.7675 16.9377 63.3449 11.7546 66.1921 8.36358C69.0393 4.97255 74.7188 -0.867496 76.948 0.544896C77.4878 0.892163 77.2449 2.08816 76.5108 3.53942C76.1802 3.64255 75.8442 3.72906 75.5042 3.79858C75.9953 2.94207 76.3205 2.22033 76.4177 1.71627C76.7537 -0.0356103 72.4937 3.65993 69.4495 7.63018C67.6158 10.0237 65.9867 12.5557 64.5782 15.2014C65.1281 14.8793 65.6531 14.5194 66.1489 14.1246C67.5068 13.0434 68.7972 11.8864 70.0135 10.6597C71.1848 9.50826 72.2833 8.29065 73.3033 7.01339C73.6274 6.99834 73.9504 6.96633 74.2708 6.9175C73.1587 8.36698 71.946 9.74276 70.641 11.0355C69.4265 12.2146 68.1122 13.4832 66.9707 14.4045C65.951 15.2371 64.8755 16.0046 63.751 16.7019C63.751 16.7019 61.0887 21.8578 62.5366 22.1882C63.388 22.3851 65.0694 19.8985 65.0694 19.8985C65.0694 19.8985 67.2635 16.6837 68.5859 15.2338C70.39 13.2642 71.9431 12.1239 73.4949 12.1032C74.399 12.0876 74.932 13.0102 74.932 13.0102L75.3571 12.3779H77.9749C77.9749 12.3779 73.0861 20.3443 72.6948 20.9442M79.9949 2.4121C78.1517 3.5472 75.6013 4.57604 73.1508 4.35576C72.5301 4.97125 71.8662 5.68393 71.201 6.46139C75.4502 7.26866 79.1731 4.74061 81.1527 2.58833C81.8748 1.81458 82.4952 0.958573 83 0.0395447C82.0988 0.940944 81.0901 1.73728 79.9949 2.4121ZM43.2309 6.32015H40.7413L39.3339 8.50353H41.8235L43.2309 6.32015ZM31.4427 13.881C32.502 12.4867 35.4248 7.60038 35.4248 7.60038C35.4124 7.50704 35.3671 7.4206 35.2964 7.3555C35.2256 7.29041 35.1338 7.2506 35.0361 7.24274C34.6313 7.2246 33.9566 7.35547 32.6167 8.96612C31.2767 10.5768 30.2364 11.8583 29.478 13.1916C28.6468 14.6468 28.2838 15.673 28.7615 15.9516C28.9165 16.0262 29.0946 16.0437 29.2621 16.0009C29.5725 15.9257 29.9786 15.6264 30.5359 15.0109C30.7977 14.7232 31.0946 14.3358 31.4427 13.881ZM18.0838 7.27254C17.3956 6.77367 15.6455 7.94116 15.636 9.13327C15.6252 10.3578 17.2108 10.7323 17.4159 10.7413C17.4762 10.7461 17.5367 10.734 17.5899 10.7063C17.6265 10.6858 17.6557 10.6551 17.6736 10.6182C17.86 10.2665 18.0276 9.90577 18.1756 9.53755C18.4171 8.93113 18.7234 7.74032 18.0838 7.27254ZM17.0461 11.4877C16.5716 11.3453 16.1181 11.145 15.6968 10.8916C15.2884 10.636 14.9564 10.2828 14.7333 9.86668C14.709 9.82781 14.682 9.85761 14.6577 9.89259C14.6334 9.92758 14.4931 10.096 13.5566 11.4151C12.6202 12.7342 11.233 15.432 12.5324 15.8959C13.361 16.1978 14.7603 14.788 15.52 13.8654C16.0885 13.1404 16.6138 12.3851 17.0934 11.603C17.1244 11.524 17.0934 11.5058 17.0475 11.4916M37.38 12.3001H38.2922C38.2922 12.3001 33.7218 18.6494 31.1405 18.354C29.6993 18.192 30.1271 16.4842 30.1271 16.4842C30.1271 16.4842 28.103 18.7596 26.2435 18.2983C24.5568 17.8823 25.6458 15.1884 25.6458 15.1884C25.4542 15.2623 21.8041 19.2131 19.2389 18.2659C16.555 17.2707 17.9489 13.9626 18.4589 12.9675C18.8921 12.1291 19.3711 11.3128 19.3711 11.3128C19.3711 11.3128 18.9596 11.4242 18.6964 11.4812C18.4333 11.5382 18.0528 11.6108 18.0528 11.6108C18.0528 11.6108 16.783 13.592 16.0071 14.5807C15.2312 15.5694 11.9333 18.9669 9.99021 18.2905C8.04709 17.6141 8.52882 15.0031 9.62048 12.9299C11.3909 9.56736 15.5915 5.43514 18.1216 6.06229C20.6773 6.68815 18.5615 10.6688 18.5615 10.6688C18.5615 10.6688 19.0702 10.7323 20.2887 9.93406C22.0429 8.78471 24.3585 5.693 26.8656 6.05581C28.0477 6.22686 29.1488 7.38657 27.6429 9.58938C27.1625 10.2969 26.3569 10.9292 25.7402 10.3034C25.3556 9.91462 25.6916 9.20584 26.0951 8.72122C26.2521 8.52367 26.4573 8.36622 26.6927 8.26273C26.928 8.15924 27.1861 8.11289 27.4445 8.12775C27.4445 8.12775 27.8588 7.22071 26.8049 7.23367C25.9521 7.24922 23.7931 9.15789 22.5746 11.086C21.4573 12.856 19.7638 15.8713 21.464 16.5282C23.0226 17.1321 25.9885 13.7514 27.3622 11.9801C28.7359 10.2088 31.8664 6.19446 34.4923 6.03379C35.3964 5.97677 35.9348 6.76849 35.9348 6.76849L36.2384 6.30719H38.8643C38.8643 6.30719 33.9188 14.2321 33.5329 14.8321C33.2293 15.3011 32.8258 16.3559 33.9377 15.765C35.0496 15.1742 37.38 12.3001 37.38 12.3001ZM35.951 24.9987C34.0176 23.7135 31.7024 23.0647 29.3525 23.1496C28.7165 23.1663 28.0935 23.3267 27.5341 23.6178C26.9747 23.9089 26.4947 24.3225 26.1329 24.8251C25.1316 23.147 23.1521 22.1169 20.0917 22.1402C15.1462 22.1947 10.2412 24.3845 6.35497 24.3819C2.63067 24.3819 -0.0856454 22.1338 0.0020646 18.1415C0.16534 11.1352 6.33068 4.82613 10.9321 1.98709C13.585 0.355713 15.8034 -0.128906 17.2539 0.0278827C18.3119 0.140615 19.5843 1.31458 18.7814 3.04444C17.6021 5.57249 15.9734 5.36517 16.0341 4.15621C16.0678 3.36968 16.613 2.87469 17.0232 2.60129C17.2836 2.42895 17.7438 2.37971 17.984 2.37453C18.2174 2.18534 18.3888 0.801459 16.4996 1.25627C14.6105 1.71109 12.3165 3.49926 10.1386 5.80962C7.96073 8.11998 4.56973 12.4867 3.73176 17.0725C3.34044 19.1988 3.59682 23.0771 8.84728 23.033C13.3002 22.998 19.8637 20.1823 25.8954 20.2406C28.2366 20.2627 30.2742 20.8691 31.8624 21.8098C33.4223 22.7324 35.2925 24.08 35.9564 25" fill="white"/>
</svg>
