<svg width="116" height="152" viewBox="0 0 116 152" fill="none" xmlns="http://www.w3.org/2000/svg">

<path d="M33.5813 53.1173C33.0255 55.1915 32.0671 56.1297 31.5502 56.7395C30.5344 56.7149 28.8174 56.7501 23.2194 55.2555C23.2194 55.2555 23.189 55.2473 23.1738 55.2433C23.1585 55.2392 23.1433 55.2351 23.1281 55.231C17.5379 53.7278 16.0685 52.8388 15.1765 52.3522C15.0337 51.5657 14.6729 50.274 15.2287 48.1997C15.7091 46.4067 18.6592 41.7496 19.1934 39.7557C19.7277 37.7618 20.4939 29.7472 22.0966 23.7655C23.6994 17.7838 26.8306 11.2535 28.369 8.67813C29.9088 6.09776 33.5379 2.47847 34.8729 -2.50377L35.2995 -4.09587C35.1016 -4.14889 34.7638 -4.39013 34.9893 -4.92722C35.2778 -5.59815 36.3358 -6.38049 36.342 -6.80948C36.3468 -7.23344 35.9255 -7.24406 36.0318 -7.64083C36.1381 -8.0376 36.6685 -8.4338 36.9678 -8.35358L43.0262 -6.73026C43.3255 -6.65004 43.5881 -6.04677 43.4804 -5.64499C43.3727 -5.24319 43.0052 -5.45471 42.7961 -5.08011C42.5883 -4.71053 43.1171 -3.49761 43.0265 -2.77367C42.9583 -2.19443 42.54 -2.15576 42.3422 -2.20879L41.9155 -0.616684C40.5806 4.36555 41.9138 9.3145 41.9571 12.3191C42.0004 15.3236 41.4469 22.5446 39.8454 28.5213C38.244 34.498 34.8989 41.8269 34.3646 43.8208C33.8304 45.8147 34.0566 51.3229 33.5762 53.1159L33.5813 53.1173Z" fill="white"/>
<path d="M98.5809 96.1805C99.6546 98.0403 99.6403 99.3814 99.706 100.178C98.9704 100.879 97.7811 102.118 92.7659 105.019C92.7659 105.019 92.7386 105.035 92.725 105.043C92.7113 105.051 92.6977 105.059 92.684 105.067C87.6682 107.957 86.0006 108.367 85.0257 108.654C84.3687 108.198 83.2001 107.54 82.1264 105.681C81.1983 104.073 79.9912 98.6939 78.9591 96.9062C77.9269 95.1185 72.8016 88.9096 69.7052 83.5466C66.6089 78.1835 64.2052 71.3518 63.472 68.443C62.7362 65.5296 62.7432 60.4042 60.1642 55.9372L59.34 54.5098C59.1626 54.6122 58.7532 54.6805 58.5328 54.1413C58.2625 53.4628 58.4574 52.1615 58.1584 51.8538C57.862 51.5506 57.5566 51.841 57.3512 51.4853C57.1458 51.1295 57.2407 50.4744 57.5091 50.3194L62.9408 47.1834C63.2092 47.0284 63.8215 47.2694 64.0294 47.6296C64.2374 47.9898 63.828 48.1001 63.945 48.5129C64.0594 48.9212 65.291 49.4049 65.7388 49.9809C66.1002 50.4387 65.8318 50.7618 65.6543 50.8642L66.4785 52.2917C69.0575 56.7586 73.4996 59.3153 75.6548 61.4092C77.81 63.5031 82.5246 69.0006 85.6183 74.3591C88.7121 79.7177 91.5291 87.2653 92.5612 89.053C93.5933 90.8407 97.6482 94.5756 98.5763 96.1832L98.5809 96.1805Z" fill="white"/>
<path d="M16.1112 134.828C14.2515 133.754 13.5933 132.586 13.1381 131.929C13.4247 130.954 13.8352 129.286 16.7277 124.266C16.7277 124.266 16.7434 124.239 16.7513 124.225C16.7592 124.211 16.7671 124.198 16.775 124.184C19.6738 119.173 20.9128 117.984 21.6137 117.248C22.4104 117.314 23.7515 117.3 25.6112 118.374C27.2188 119.302 30.9537 123.357 32.7414 124.389C34.5291 125.421 42.0722 128.235 47.4353 131.332C52.7983 134.428 58.2957 139.143 60.3851 141.295C62.4791 143.45 65.0358 147.892 69.5027 150.471L70.9301 151.296C71.0326 151.118 71.353 150.854 71.8135 151.211C72.3868 151.664 72.8687 152.888 73.2815 153.005C73.6897 153.119 73.809 152.715 74.1648 152.92C74.5205 153.126 74.7659 153.741 74.611 154.009L71.475 159.441C71.32 159.709 70.6693 159.807 70.3091 159.599C69.9488 159.391 70.2483 159.09 69.9406 158.792C69.6374 158.495 68.3289 158.692 67.6531 158.417C67.1112 158.201 67.1821 157.787 67.2846 157.61L65.8571 156.786C61.3902 154.207 56.2648 154.214 53.3514 153.478C50.438 152.742 43.6063 150.338 38.2478 147.245C32.8893 144.151 26.6759 139.023 24.8882 137.991C23.1005 136.959 17.7214 135.752 16.1138 134.824L16.1112 134.828Z" fill="white"/>
</svg>
