<svg viewBox="0 0 20 20" fill="none" xmlns="http://www.w3.org/2000/svg">
<mask id="mask0_495_768" style="mask-type:alpha" maskUnits="userSpaceOnUse" x="0" y="0" width="20" height="20">
<rect width="20" height="20" fill="#D9D9D9"/>
</mask>
<g mask="url(#mask0_495_768)">
<path d="M10 15C10.2917 15 10.5382 14.8993 10.7396 14.6979C10.941 14.4965 11.0417 14.25 11.0417 13.9583C11.0417 13.6667 10.941 13.4201 10.7396 13.2188C10.5382 13.0174 10.2917 12.9167 10 12.9167C9.70833 12.9167 9.46181 13.0174 9.26042 13.2188C9.05903 13.4201 8.95833 13.6667 8.95833 13.9583C8.95833 14.25 9.05903 14.4965 9.26042 14.6979C9.46181 14.8993 9.70833 15 10 15ZM9.25 11.7917H10.7917C10.7917 11.2917 10.8472 10.9236 10.9583 10.6875C11.0694 10.4514 11.3056 10.1528 11.6667 9.79167C12.1528 9.30556 12.4965 8.89931 12.6979 8.57292C12.8993 8.24653 13 7.875 13 7.45833C13 6.72222 12.75 6.12847 12.25 5.67708C11.75 5.22569 11.0764 5 10.2292 5C9.46528 5 8.81597 5.1875 8.28125 5.5625C7.74653 5.9375 7.375 6.45833 7.16667 7.125L8.54167 7.66667C8.63889 7.29167 8.83333 6.98958 9.125 6.76042C9.41667 6.53125 9.75694 6.41667 10.1458 6.41667C10.5208 6.41667 10.8333 6.51736 11.0833 6.71875C11.3333 6.92014 11.4583 7.1875 11.4583 7.52083C11.4583 7.75694 11.3819 8.00694 11.2292 8.27083C11.0764 8.53472 10.8194 8.82639 10.4583 9.14583C10 9.54861 9.68403 9.93403 9.51042 10.3021C9.33681 10.6701 9.25 11.1667 9.25 11.7917ZM4.16667 17.5C3.70833 17.5 3.31597 17.3368 2.98958 17.0104C2.66319 16.684 2.5 16.2917 2.5 15.8333V4.16667C2.5 3.70833 2.66319 3.31597 2.98958 2.98958C3.31597 2.66319 3.70833 2.5 4.16667 2.5H15.8333C16.2917 2.5 16.684 2.66319 17.0104 2.98958C17.3368 3.31597 17.5 3.70833 17.5 4.16667V15.8333C17.5 16.2917 17.3368 16.684 17.0104 17.0104C16.684 17.3368 16.2917 17.5 15.8333 17.5H4.16667ZM4.16667 15.8333H15.8333V4.16667H4.16667V15.8333Z" fill="white"/>
</g>
</svg>
