<svg viewBox="0 0 81 82" fill="none" xmlns="http://www.w3.org/2000/svg">

<path d="M41.9883 47.7563H43.5607L41.9883 46.1839V47.7563Z" fill="currentColor"/>
<path d="M39.7433 35.808C41.2019 35.808 42.433 36.3149 43.4468 37.3287C44.4606 38.3425 44.9675 39.5839 44.9675 41.0322V41.777H41.9778L43.4675 43.2874L44.9571 43.277V44.7874L46.4468 46.277V41.0425C46.4468 40.1115 46.2709 39.2322 45.9192 38.4149C45.5675 37.5977 45.0812 36.8943 44.4812 36.2839C43.8812 35.6736 43.1675 35.1977 42.3502 34.846C41.533 34.4943 40.664 34.3184 39.7226 34.3184C38.7812 34.3184 37.9123 34.4943 37.095 34.846C36.6192 35.0529 36.1847 35.3218 35.7812 35.6115L36.8261 36.6563C37.664 36.0874 38.6364 35.808 39.7226 35.808H39.7433Z" fill="currentColor"/>
<path d="M33.5569 38.415C33.2052 39.2323 33.0293 40.1012 33.0293 41.0426V46.2771C33.0293 46.6909 33.1741 47.0426 33.4638 47.3323C33.7534 47.6219 34.1052 47.7667 34.519 47.7667H37.5086V41.7874H34.519V41.0426C34.519 40.3392 34.6431 39.6874 34.881 39.0771L33.7948 37.9909C33.7224 38.1357 33.6293 38.2702 33.5569 38.415ZM34.519 43.2771H36.0086V46.2667H34.519V43.2771Z" fill="currentColor"/>
<path d="M32.7315 34L32 34.7315L46.2714 49.0028L47.0029 48.2714L32.7315 34Z" fill="currentColor"/>

</svg>
