<svg viewBox="0 0 40 40" fill="none" xmlns="http://www.w3.org/2000/svg">
<path d="M21.9878 26.7563H23.5602L21.9878 25.1839V26.7563Z" fill="currentColor"/>
<path d="M19.7428 14.808C21.2015 14.808 22.4325 15.3149 23.4463 16.3287C24.4601 17.3425 24.967 18.5839 24.967 20.0322V20.777H21.9773L23.467 22.2874L24.9566 22.277V23.7874L26.4463 25.277V20.0425C26.4463 19.1115 26.2704 18.2322 25.9187 17.4149C25.567 16.5977 25.0808 15.8943 24.4808 15.2839C23.8808 14.6736 23.167 14.1977 22.3497 13.846C21.5325 13.4943 20.6635 13.3184 19.7221 13.3184C18.7808 13.3184 17.9118 13.4943 17.0946 13.846C16.6187 14.0529 16.1842 14.3218 15.7808 14.6115L16.8256 15.6563C17.6635 15.0874 18.6359 14.808 19.7221 14.808H19.7428Z" fill="currentColor"/>
<path d="M13.5569 17.415C13.2052 18.2323 13.0293 19.1012 13.0293 20.0426V25.2771C13.0293 25.6909 13.1741 26.0426 13.4638 26.3323C13.7534 26.6219 14.1052 26.7667 14.519 26.7667H17.5086V20.7874H14.519V20.0426C14.519 19.3392 14.6431 18.6874 14.881 18.0771L13.7948 16.9909C13.7224 17.1357 13.6293 17.2702 13.5569 17.415ZM14.519 22.2771H16.0086V25.2667H14.519V22.2771Z" fill="currentColor"/>
<path d="M12.7315 13L12 13.7315L26.2714 28.0028L27.0029 27.2714L12.7315 13Z" fill="currentColor"/>
</svg>
